<?xml version="1.0" encoding="UTF-8" standalone="no"?>
<!-- Created with Inkscape (http://www.inkscape.org/) -->

<svg
   width="168.21558mm"
   height="172.53583mm"
   viewBox="0 0 168.21558 172.53583"
   version="1.1"
   id="svg5"
   inkscape:version="1.1.2 (1:1.1+202202050950+0a00cf5339)"
   sodipodi:docname="apple.svg"
   xmlns:inkscape="http://www.inkscape.org/namespaces/inkscape"
   xmlns:sodipodi="http://sodipodi.sourceforge.net/DTD/sodipodi-0.dtd"
   xmlns="http://www.w3.org/2000/svg"
   xmlns:svg="http://www.w3.org/2000/svg">
  <sodipodi:namedview
     id="namedview7"
     pagecolor="#ffffff"
     bordercolor="#666666"
     borderopacity="1.0"
     inkscape:pageshadow="2"
     inkscape:pageopacity="0.0"
     inkscape:pagecheckerboard="0"
     inkscape:document-units="mm"
     showgrid="false"
     fit-margin-top="0"
     fit-margin-left="0"
     fit-margin-right="0"
     fit-margin-bottom="0"
     showborder="false"
     inkscape:zoom="0.46858866"
     inkscape:cx="435.34984"
     inkscape:cy="456.69052"
     inkscape:window-width="1366"
     inkscape:window-height="702"
     inkscape:window-x="0"
     inkscape:window-y="38"
     inkscape:window-maximized="1"
     inkscape:current-layer="layer1" />
  <defs
     id="defs2">
    <rect
       x="-584.48846"
       y="468.05099"
       width="421.2457"
       height="176.09901"
       id="rect7168" />
  </defs>
  <g
     inkscape:label="Layer 1"
     inkscape:groupmode="layer"
     id="layer1"
     transform="translate(194.52285,-27.926913)">
    <g
       id="g28269">
      <g
         id="g884"
         transform="matrix(1.2544416,0,0,1.2544416,27.270886,-54.842259)">
        <path
           style="fill:#e4a0a3;stroke-width:0.711386"
           d="m -138.26237,201.8396 c -0.98784,-1.50763 -0.95702,-2.03465 0.3393,-5.80246 1.92797,-5.60374 1.82505,-6.52413 -0.88619,-7.92548 -4.06344,-2.10026 -9.44601,-6.42424 -12.42259,-9.97945 -5.74955,-6.8672 -11.09886,-18.05821 -13.10646,-27.41932 -0.61966,-2.88937 -1.65615,-4.46843 -5.93942,-9.04854 -2.85382,-3.0516 -5.56195,-6.24566 -6.01806,-7.09792 -1.08608,-2.02935 -0.38419,-4.08517 1.56914,-4.59597 1.97902,-0.51753 4.02636,0.82024 6.24885,4.08311 0.96065,1.41034 1.98673,2.56645 2.28018,2.56913 0.29344,0.003 0.53827,-2.63617 0.54405,-5.86408 0.0303,-16.93023 9.15362,-32.312616 24.27189,-40.923803 6.87075,-3.913499 11.77626,-5.138447 20.57776,-5.138447 h 7.91297 l -2.50478,-4.556899 c -2.02344,-3.681199 -2.34358,-4.771971 -1.6659,-5.676073 1.18514,-1.581125 5.4906,-1.779031 6.42645,-0.295401 0.64313,1.019572 1.27917,0.674472 4.85007,-2.631554 4.7568,-4.403962 8.160985,-5.441148 18.21896,-5.550947 8.624169,-0.09415 9.339518,1.256546 5.3782,10.154945 -2.124747,4.772886 -3.43337,6.294981 -6.646438,7.730676 -2.379266,1.063128 -2.410859,1.123742 -0.711386,1.364734 12.343438,1.75035 24.768956,8.557841 32.324502,17.709429 8.760634,10.61124 12.909744,26.38294 11.090602,42.15788 -0.721901,6.2601 -3.567367,16.37123 -5.171251,18.37566 -0.932093,1.16487 0.549141,3.39528 5.245391,7.89838 3.115359,2.98722 3.587421,3.78099 3.190083,5.36409 -0.37485,1.49354 -0.890705,1.85804 -2.629525,1.85804 -1.629913,0 -3.122963,-0.90771 -6.056442,-3.68207 l -3.893252,-3.68208 -1.15256,1.72576 c -3.089471,4.62598 -11.409729,11.66398 -19.701055,16.66488 -1.066972,0.64354 -0.974656,1.14152 0.967962,5.22142 1.181086,2.48052 2.147425,5.05752 2.147425,5.72666 0,1.70549 -1.410159,2.92395 -3.383985,2.92395 -1.395249,0 -2.082355,-0.89024 -4.093771,-5.304 l -2.417105,-5.30399 -5.189825,1.8213 c -9.567694,3.35766 -25.59843,3.00869 -36.79963,-0.80108 l -5.08629,-1.72997 -0.63504,1.6703 c -0.34928,0.91866 -0.85988,2.86875 -1.13468,4.33355 -0.5343,2.84807 -2.48367,5.31389 -4.20094,5.31389 -0.57788,0 -1.53962,-0.74621 -2.13721,-1.65825 z m 5.67774,-48.13878 c 0.24667,-0.39912 -0.31324,-0.71139 -1.27559,-0.71139 -4.22749,0 -9.03612,-5.62556 -9.0384,-10.57393 -0.003,-6.08763 6.26135,-11.4269 12.27765,-10.46485 1.62,0.25904 3.41355,0.8571 3.98566,1.32902 0.83573,0.68936 0.97293,0.65447 0.69793,-0.17747 -0.18826,-0.56953 -1.76091,-1.79733 -3.49477,-2.72844 -6.13351,-3.2938 -13.62626,-0.86751 -17.17087,5.56023 -2.09343,3.79618 -1.49082,9.81506 1.33256,13.30975 3.04165,3.76484 11.31677,6.67226 12.68583,4.45708 z m 62.744678,-3.48443 c 4.684072,-3.39312 6.350643,-9.44039 4.091658,-14.8469 -1.58659,-3.79725 -3.604167,-5.65028 -7.595412,-6.97596 -2.996359,-0.99523 -3.98414,-1.03455 -6.723367,-0.26761 -3.271658,0.91601 -8.055928,4.71545 -8.055928,6.39763 0,0.58206 0.626347,0.34082 1.676452,-0.64571 3.457194,-3.24786 10.362512,-2.85702 13.926428,0.78824 4.647507,4.75358 4.505586,11.15593 -0.341621,15.41184 -1.985401,1.7432 -2.227357,2.20013 -1.165023,2.20013 0.73743,0 2.6215,-0.92774 4.186813,-2.06166 z M -105.55196,84.69637 c 0.24181,-0.391263 -0.0783,-0.711386 -0.71139,-0.711386 -0.63307,0 -0.9532,0.320123 -0.71138,0.711386 0.24181,0.391262 0.56194,0.711386 0.71138,0.711386 0.14945,0 0.46957,-0.320124 0.71139,-0.711386 z"
           id="path906" />
        <path
           style="fill:#a0a39e;stroke-width:0.711386"
           d="m -137.42809,202.67779 c -1.47643,-0.82625 -1.51017,-2.74168 -0.12854,-7.2961 1.70271,-5.61284 1.48206,-6.49934 -1.96053,-7.87679 -1.9034,-0.76159 -5.13312,-3.35451 -8.7357,-7.01326 -6.75067,-6.85596 -11.00943,-14.45421 -14.59728,-26.04372 -2.17243,-7.01736 -2.56736,-7.71488 -7.04934,-12.45019 -6.42721,-6.79048 -7.45945,-8.43642 -6.46093,-10.30217 1.6111,-3.01036 4.53515,-1.67738 9.12068,4.15781 l 1.34824,1.71568 0.44881,-7.40676 c 0.66129,-10.91337 3.66685,-19.34083 9.80234,-27.48524 5.74677,-7.62843 16.27044,-14.593277 25.70016,-17.009059 3.33749,-0.855025 5.96964,-1.001672 11.0894,-0.617828 l 6.71319,0.503308 -2.57612,-4.851434 c -1.41687,-2.668289 -2.57612,-5.227815 -2.57612,-5.687836 0,-1.902111 5.98014,-2.403912 6.68728,-0.561139 0.34629,0.902435 1.31834,0.322929 4.68216,-2.791381 4.9054,-4.541532 8.216505,-5.565515 18.35424,-5.676185 8.653009,-0.09446 9.32105,1.194758 5.334841,10.295487 -2.077873,4.743898 -3.884225,6.618379 -7.626279,7.913912 l -2.738488,0.948087 5.615618,1.123775 c 7.818154,1.564536 13.005482,3.671317 19.136904,7.772263 13.693535,9.15879 20.533576,22.16408 21.465357,40.81309 0.464891,9.30445 -0.549233,16.42911 -3.391747,23.82841 -2.599511,6.76677 -2.661857,6.47335 2.485569,11.69736 4.801828,4.87327 5.325408,5.8788 3.83642,7.36779 -1.798576,1.79858 -4.179699,0.8928 -8.186745,-3.11426 -2.922424,-2.92242 -4.118022,-3.71904 -4.537605,-3.02339 -2.297727,3.80959 -9.673655,10.89357 -14.76676,14.1823 -3.264864,2.10818 -6.062361,4.03733 -6.216661,4.28699 -0.154299,0.24967 0.676237,2.56409 1.845642,5.14315 2.414252,5.32452 2.555533,6.32408 1.068352,7.55833 -2.217148,1.84007 -4.30025,0.28197 -6.607838,-4.94247 l -2.199371,-4.97944 -3.07057,1.09165 c -4.900625,1.74229 -12.428242,3.14684 -16.865279,3.14684 -6.15648,0 -18.76321,-1.94179 -22.96019,-3.53651 -2.04012,-0.77519 -3.88845,-1.23521 -4.1074,-1.02228 -0.21895,0.21293 -1.03834,2.48967 -1.82087,5.05941 -1.4915,4.89794 -3.15842,6.4229 -5.55484,5.0818 z m 6.97762,-48.97697 c 1.07911,-0.46371 0.63199,-0.62347 -1.85111,-0.66138 -4.41362,-0.0674 -7.68372,-2.34185 -9.43196,-6.56017 -1.70947,-4.12479 -1.16815,-7.56698 1.70452,-10.83878 3.86289,-4.39959 10.56529,-4.84716 14.76871,-0.98624 1.57123,1.44321 1.68103,1.46422 1.01849,0.19484 -1.99891,-3.82971 -6.14392,-6.04678 -11.305,-6.04678 -4.26262,0 -7.78369,1.75911 -10.20131,5.09654 -2.67082,3.68696 -3.17226,6.92201 -1.80299,11.63213 1.13871,3.91701 3.54178,6.50277 7.51819,8.08975 2.15963,0.8619 7.65618,0.90784 9.58246,0.0801 z m 60.780112,-2.81464 c 5.539969,-3.94481 7.133567,-12.06657 3.457564,-17.6214 -2.228267,-3.36712 -6.885079,-5.88524 -10.883723,-5.88524 -5.067175,0 -10.348889,3.56233 -11.986777,8.08466 -0.350828,0.96865 0.189584,0.73822 2.003185,-0.85414 6.13589,-5.38738 15.190028,-2.64884 17.372233,5.25447 1.170493,4.23919 -0.952205,9.13712 -5.115286,11.80311 l -2.273355,1.45582 2.674456,-0.37908 c 1.470954,-0.20849 3.609217,-1.04468 4.751703,-1.8582 z M -102.70642,84.69637 c -3.14663,-0.800682 -4.62401,-0.800682 -4.62401,0 0,0.391262 1.52059,0.67351 3.37909,0.627218 3.01624,-0.07513 3.14992,-0.14248 1.24492,-0.627218 z"
           id="path904" />
        <path
           style="fill:#dd7b80;stroke-width:0.711386"
           d="m -77.96179,202.27688 c -0.720435,-0.72043 -2.100972,-3.15458 -3.067853,-5.40919 -1.432632,-3.34069 -2.021261,-4.042 -3.180735,-3.78959 -0.782525,0.17034 -3.954937,0.98386 -7.049808,1.8078 -9.433254,2.51141 -25.119974,1.69278 -34.384574,-1.79441 l -4.48489,-1.68811 -0.69815,1.83628 c -0.38399,1.00995 -1.05195,3.24134 -1.48438,4.95864 -0.86838,3.44866 -2.07122,4.82813 -3.89681,4.46906 -2.55183,-0.50193 -2.78796,-2.3596 -1.01751,-8.00491 0.92836,-2.96018 1.55226,-5.48457 1.38644,-5.60975 -0.16583,-0.12519 -2.77046,-1.74335 -5.78806,-3.59593 -6.83948,-4.19891 -11.74501,-9.63634 -15.78441,-17.49592 -2.94324,-5.72674 -6.82878,-16.54293 -6.82878,-19.00929 0,-0.61538 -2.73977,-4.1466 -6.08838,-7.84715 -4.90583,-5.42143 -6.04575,-7.09686 -5.86893,-8.62595 0.16182,-1.39947 0.68094,-1.96278 1.97727,-2.14561 1.38148,-0.19485 2.46133,0.55419 5.0436,3.49849 l 3.28577,3.74643 0.44905,-7.41112 c 0.66153,-10.91779 3.66629,-19.34411 9.80259,-27.4896 5.74677,-7.62843 16.27044,-14.593277 25.70016,-17.009059 3.32222,-0.851114 5.97229,-1.001474 11.00313,-0.624295 3.64481,0.273261 6.62692,0.294149 6.62692,0.04642 0,-0.809507 -2.98512,-6.410714 -4.08178,-7.658954 -1.5028,-1.710511 -0.69658,-3.169238 1.96773,-3.560275 1.65741,-0.243256 2.62861,0.05511 3.61071,1.10927 1.34067,1.439045 1.34876,1.435829 3.90742,-1.553392 2.89383,-3.380788 5.44489,-4.88747 10.602109,-6.261722 4.73569,-1.261927 13.206178,-1.252744 14.941562,0.0162 1.225206,0.89589 1.260875,1.250412 0.411537,4.09047 -1.386549,4.636459 -4.090478,9.62117 -5.914123,10.902741 -0.887554,0.623728 -2.814194,1.327174 -4.281427,1.563215 -3.853145,0.61987 -3.281034,1.42993 1.422772,2.014525 5.961003,0.740842 14.093796,3.49934 19.380085,6.573379 6.506458,3.78358 14.716984,12.183817 17.933645,18.348017 7.180852,13.76092 8.259477,33.44425 2.630713,48.00694 -2.659596,6.8809 -2.639819,6.98807 2.161333,11.71561 4.355753,4.28896 5.430735,6.91036 3.186903,7.7714 -1.981282,0.76029 -2.46072,0.50483 -6.77379,-3.60913 l -4.236503,-4.04094 -1.209912,1.72893 c -3.704393,5.29345 -10.622858,11.29036 -17.599827,15.25548 -1.956311,1.1118 -3.657712,2.09195 -3.780889,2.1781 -0.123183,0.0862 0.911585,2.4974 2.299478,5.35834 2.201953,4.53902 2.403987,5.3816 1.58585,6.61379 -1.314215,1.9793 -2.299399,2.14064 -3.815256,0.62478 z m -51.2554,-49.1691 c 0.66763,-0.66762 0.37075,-0.75928 -1.34675,-0.41578 -3.12675,0.62535 -8.35432,-1.83532 -10.22226,-4.81172 -2.04483,-3.25826 -1.6515,-9.06696 0.791,-11.68148 3.91701,-4.19289 8.37941,-4.89544 13.28375,-2.09136 2.38699,1.36477 2.89003,1.47585 2.37733,0.52497 -1.96322,-3.64106 -6.17328,-5.8301 -11.2127,-5.8301 -4.26262,0 -7.78369,1.75911 -10.20131,5.09654 -2.67082,3.68696 -3.17226,6.92201 -1.80299,11.63213 1.13403,3.90091 3.46639,6.42251 7.51819,8.12817 2.25174,0.94791 9.69597,0.56841 10.81574,-0.55137 z m 58.178552,-1.43687 c 9.118412,-4.85037 9.006724,-18.33096 -0.188759,-22.78242 -7.158216,-3.46523 -15.823659,-0.0733 -17.953841,7.02768 l -0.533504,1.77846 2.040796,-1.86938 c 2.865328,-2.62468 4.747883,-3.46601 7.755453,-3.46601 7.391863,0 12.551347,7.82092 9.29204,14.0852 -1.328749,2.55383 -3.852725,4.77228 -6.470064,5.6869 l -2.134158,0.74577 2.856642,0.0561 c 1.571153,0.0309 3.972081,-0.53717 5.335395,-1.26236 z M -100.92795,84.745548 c -1.81269,-1.051425 -6.59236,-1.208048 -6.9281,-0.227025 -0.2211,0.64605 0.83053,0.883317 3.84543,0.8676 2.70552,-0.01411 3.77838,-0.237041 3.08267,-0.640575 z"
           id="path902" />
        <path
           style="fill:#d45c62;stroke-width:0.711386"
           d="m -77.96179,202.27688 c -0.720435,-0.72043 -2.100972,-3.15458 -3.067853,-5.40919 -1.432632,-3.34069 -2.021261,-4.042 -3.180735,-3.78959 -0.782525,0.17034 -3.954937,0.98386 -7.049808,1.8078 -9.433254,2.51141 -25.119974,1.69278 -34.384574,-1.79441 l -4.48489,-1.68811 -0.69815,1.83628 c -0.38399,1.00995 -1.05195,3.24134 -1.48438,4.95864 -0.86838,3.44866 -2.07122,4.82813 -3.89681,4.46906 -2.56549,-0.50461 -2.78826,-2.35864 -0.97727,-8.13321 0.99642,-3.17718 1.43286,-5.60894 1.03074,-5.74304 -0.38359,-0.12791 -3.15164,-1.80503 -6.15123,-3.72693 -8.80086,-5.63887 -14.88636,-14.38706 -19.40565,-27.89653 -1.3909,-4.15781 -2.52891,-7.95909 -2.52891,-8.44731 0,-0.48821 -2.73977,-3.91538 -6.08838,-7.61593 -4.90583,-5.42143 -6.04575,-7.09686 -5.86893,-8.62595 0.16182,-1.39947 0.68094,-1.96278 1.97727,-2.14561 1.38092,-0.19477 2.48195,0.56791 5.13491,3.55693 l 3.37707,3.80485 0.032,-4.26831 c 0.0713,-9.51482 4.34982,-23.01004 9.33905,-29.45704 5.40188,-6.980235 12.75138,-12.744298 20.5927,-16.150443 4.08762,-1.775597 5.60403,-2.0214 14.00964,-2.270896 5.18422,-0.153879 9.42586,-0.421185 9.42586,-0.594015 0,-0.702574 -3.08493,-6.388133 -4.08178,-7.522768 -1.5028,-1.710511 -0.69658,-3.169238 1.96773,-3.560275 1.65741,-0.243256 2.62861,0.05511 3.61071,1.10927 1.34067,1.439045 1.34876,1.435829 3.90742,-1.553392 2.89383,-3.380788 5.44489,-4.88747 10.602109,-6.261722 4.73569,-1.261927 13.206178,-1.252744 14.941562,0.0162 1.225206,0.89589 1.260875,1.250412 0.411537,4.09047 -1.386549,4.636459 -4.090478,9.62117 -5.914123,10.902741 -0.887554,0.623728 -2.821286,1.328309 -4.297192,1.565736 -2.383435,0.383418 -4.378183,1.579534 -2.871766,1.722001 0.316539,0.02993 1.055711,0.144021 1.642605,0.253523 0.586894,0.109502 2.734106,0.414352 4.771587,0.677444 3.640888,0.470135 11.031606,2.953033 15.411454,5.177448 7.55583,3.837422 15.937701,12.125558 19.653164,19.433408 7.7248,15.19368 8.165012,35.28779 1.127213,51.45266 l -1.179464,2.70908 4.650843,4.81743 c 4.637177,4.80329 5.729354,7.33868 3.52558,8.18435 -1.981168,0.76025 -2.460706,0.50486 -6.770191,-3.6057 -2.421231,-2.30947 -4.477919,-3.7557 -4.80537,-3.37909 -0.314852,0.36213 -1.793497,2.18798 -3.285871,4.05744 -3.081981,3.86074 -9.703392,9.29125 -14.9586,12.26822 -1.956311,1.10821 -3.657712,2.08542 -3.780889,2.17157 -0.123183,0.0862 0.911585,2.4974 2.299478,5.35834 2.201953,4.53902 2.403987,5.3816 1.58585,6.61379 -1.314215,1.9793 -2.299399,2.14064 -3.815256,0.62478 z m -54.34493,-47.86467 c 0.67574,0 1.85002,-0.47453 2.60951,-1.05452 1.29325,-0.98759 1.23965,-1.02819 -0.8445,-0.63978 -3.16174,0.58923 -8.38731,-1.87838 -10.24449,-4.83763 -2.04483,-3.25826 -1.6515,-9.06696 0.791,-11.68148 4.56166,-4.88295 10.4222,-5.02115 15.88796,-0.37469 1.34378,1.14235 1.34378,1.12467 0,-1.22075 -4.27761,-7.46608 -14.9386,-8.3664 -21.0077,-1.7741 -4.81444,5.22949 -4.34464,13.71121 1.03382,18.66433 1.9047,1.75407 7.91422,3.77429 9.59836,3.22668 0.52108,-0.16944 1.50029,-0.30806 2.17604,-0.30806 z m 61.533628,-2.70397 c 1.134298,-0.66476 3.05667,-2.43884 4.271945,-3.94239 1.982534,-2.45282 2.20958,-3.22605 2.20958,-7.52492 0,-4.15819 -0.264729,-5.13828 -2.003676,-7.41817 -1.10203,-1.44482 -2.775452,-3.13264 -3.718721,-3.75069 -7.249907,-4.75032 -17.252863,-0.59843 -19.916997,8.26687 -0.488153,1.6244 -0.364023,1.57597 1.432881,-0.55909 3.667878,-4.35814 8.701433,-5.59988 13.489545,-3.32777 4.197989,1.99208 6.62166,8.68051 4.583261,12.64811 -1.40064,2.72626 -4.317494,5.38332 -6.415528,5.84413 -1.118797,0.24572 -2.03418,0.78238 -2.03418,1.19256 0,1.05128 5.536063,0.0751 8.10189,-1.42864 z M -100.92795,84.745548 c -1.81269,-1.051425 -6.59236,-1.208048 -6.9281,-0.227025 -0.2211,0.64605 0.83053,0.883317 3.84543,0.8676 2.70552,-0.01411 3.77838,-0.237041 3.08267,-0.640575 z"
           id="path900" />
        <path
           style="fill:#8da248;stroke-width:0.711386"
           d="m -77.96179,202.27688 c -0.720435,-0.72043 -2.100972,-3.15458 -3.067853,-5.40919 -1.432632,-3.34069 -2.021261,-4.042 -3.180735,-3.78959 -0.782525,0.17034 -3.954937,0.98386 -7.049808,1.8078 -9.433254,2.51141 -25.119974,1.69278 -34.384574,-1.79441 l -4.48489,-1.68811 -0.69815,1.83628 c -0.38399,1.00995 -1.05195,3.24134 -1.48438,4.95864 -0.86838,3.44866 -2.07122,4.82813 -3.89681,4.46906 -2.55183,-0.50193 -2.78796,-2.3596 -1.01751,-8.00491 0.92836,-2.96018 1.55226,-5.49765 1.38644,-5.63883 -0.16583,-0.14116 -1.74206,-1.08825 -3.50274,-2.10462 -10.64901,-6.14725 -19.14885,-18.50839 -23.49122,-34.16282 -1.20474,-4.34312 -1.99499,-5.57297 -7.4657,-11.61865 -4.93181,-5.45014 -6.07579,-7.12941 -5.8989,-8.65907 0.16722,-1.44614 0.66165,-1.949 2.07785,-2.11334 1.48622,-0.17246 2.46131,0.50443 4.86868,3.37977 1.65564,1.97748 3.30031,3.41616 3.65482,3.19706 0.35452,-0.2191 0.64681,-2.54031 0.64955,-5.15824 0.007,-6.28764 2.23469,-15.33016 5.25542,-21.32852 5.08016,-10.08784 13.65227,-17.989019 24.22611,-22.32994 5.46201,-2.242339 6.13047,-2.347918 14.44158,-2.280947 4.79297,0.03862 8.71448,-0.216617 8.71448,-0.567197 0,-0.957886 -2.85994,-6.455223 -4.08178,-7.845948 -1.5028,-1.710511 -0.69658,-3.169238 1.96773,-3.560275 1.65741,-0.243256 2.62861,0.05511 3.61071,1.10927 1.34067,1.439045 1.34876,1.435829 3.90742,-1.553392 2.89383,-3.380788 5.44489,-4.88747 10.602109,-6.261722 4.73569,-1.261927 13.206178,-1.252744 14.941562,0.0162 1.225206,0.89589 1.260875,1.250412 0.411537,4.09047 -1.386549,4.636459 -4.090478,9.62117 -5.914123,10.902741 -0.887554,0.623728 -2.821286,1.328309 -4.297192,1.565736 -1.475905,0.237426 -2.855326,0.709759 -3.065377,1.049628 -0.500453,0.80975 -5.03699,0.795897 -6.569336,-0.02006 -0.65899,-0.350903 -2.47065,-0.751058 -4.02591,-0.889233 -2.17407,-0.193151 -2.88115,0.01635 -3.05872,0.90625 -0.20289,1.016829 1.09159,1.199912 10.653006,1.506684 12.716944,0.408016 17.672786,1.663912 26.252302,6.652786 15.068971,8.762409 22.78273,21.971629 23.878037,40.889299 0.5413,9.34909 -0.596014,17.65006 -3.4244,24.99385 -2.451585,6.36545 -2.465749,6.31354 3.251796,11.92039 4.023244,3.94537 5.030752,6.57701 2.839818,7.41775 -1.997757,0.76661 -2.485839,0.49803 -7.037103,-3.87231 l -4.482294,-4.30412 -1.508067,2.4401 c -2.318095,3.75076 -11.416061,12.04001 -16.126212,14.69276 -2.322811,1.3082 -4.324068,2.45372 -4.447245,2.5456 -0.123183,0.0919 0.911585,2.50781 2.299478,5.36875 2.201953,4.53902 2.403987,5.3816 1.58585,6.61379 -1.314215,1.9793 -2.299399,2.14064 -3.815256,0.62478 z m -52.14739,-48.29761 c 3.6143,-1.44615 3.73103,-2.44745 0.17468,-1.4982 -3.58671,0.95734 -8.73274,-1.22442 -10.8517,-4.60079 -2.04483,-3.25826 -1.6515,-9.06696 0.791,-11.68148 2.29816,-2.46002 5.08604,-3.83956 7.75927,-3.83956 2.74447,0 7.37779,2.31191 8.85231,4.41708 1.57951,2.25506 1.38091,0.65322 -0.25078,-2.02268 -5.06346,-8.30389 -16.7123,-8.93479 -22.59384,-1.22369 -2.2533,2.95422 -3.17472,8.38107 -2.0711,12.19809 2.09272,7.23802 10.82397,11.1986 18.19016,8.25123 z m 58.837706,-1.66242 c 3.5625,-1.6174 7.034769,-6.11227 7.682258,-9.94472 1.342706,-7.9474 -5.259718,-15.64258 -13.460549,-15.68836 -6.098215,-0.0341 -13.27859,5.93889 -13.151231,10.93975 0.03087,1.2129 0.231692,1.72509 0.446238,1.13819 0.21454,-0.58689 1.069612,-1.81777 1.900148,-2.73528 4.88092,-5.39207 13.308049,-4.75717 16.688364,1.25729 3.397871,6.0457 0.510704,12.72868 -6.463811,14.96187 -1.467233,0.4698 -2.667697,0.98942 -2.667697,1.15471 0,0.86165 6.446303,0.0879 9.02628,-1.08345 z M -150.8418,116.38813 c 0.28915,-2.54082 -1.54204,-4.25213 -3.45468,-3.22851 -3.04341,1.62878 -2.02904,5.93352 1.30734,5.54807 1.52195,-0.17583 1.95685,-0.64561 2.14734,-2.31956 z m 4.40843,-5.73821 c 4.09862,-2.11948 5.58554,-7.96915 2.53391,-9.96865 -3.42813,-2.246199 -8.95968,1.78607 -8.95968,6.53124 0,2.41184 1.53191,4.51653 3.28738,4.51653 0.57838,0 1.99065,-0.4856 3.13839,-1.07912 z"
           id="path898" />
        <path
           style="fill:#79ab33;stroke-width:0.711386"
           d="m -137.51352,201.66857 c -1.34897,-1.34898 -1.43956,-0.32884 0.62268,-7.01241 1.62422,-5.264 1.65982,-5.7019 0.53344,-6.56132 -0.66381,-0.50648 -1.76715,-1.11106 -2.45186,-1.34351 -0.68471,-0.23244 -1.24493,-0.74007 -1.24493,-1.12805 0,-0.38799 -0.32012,-0.50759 -0.71138,-0.26578 -0.39126,0.24182 -0.71139,0.13948 -0.71139,-0.2274 0,-0.36689 -0.91229,-1.04495 -2.02731,-1.5068 -6.52459,-2.70258 -15.48841,-17.00034 -19.3147,-30.80796 -1.35118,-4.87591 -1.92924,-5.7477 -9.42544,-14.21503 -4.24692,-4.79711 -4.80333,-6.18662 -3.05753,-7.63551 1.59576,-1.32436 3.45056,-0.32905 6.59862,3.5409 3.33398,4.0985 3.74782,3.75757 3.7556,-3.09388 0.007,-5.94703 2.29817,-15.08431 5.25542,-20.95663 5.08016,-10.08784 13.65227,-17.989019 24.22611,-22.32994 5.46201,-2.242339 6.13047,-2.347918 14.44158,-2.280947 10.06328,0.08109 9.90962,0.22645 6.50766,-6.156271 -1.21374,-2.277227 -1.99517,-4.482872 -1.73648,-4.901433 0.86121,-1.393469 4.54326,-0.875697 5.4198,0.762137 0.78707,1.47065 0.91317,1.408502 3.65819,-1.8029 1.56367,-1.829332 4.11617,-3.975563 5.67222,-4.769402 3.646387,-1.860247 14.287222,-3.213946 18.060051,-2.297551 2.633217,0.639592 2.77851,0.814788 2.5899,3.122918 -0.109902,1.344922 -1.12421,4.426268 -2.254019,6.847436 -1.690702,3.623148 -2.599462,4.680897 -5.135575,5.97752 -3.402126,1.739387 -9.528597,2.164095 -16.064167,1.113625 -3.44592,-0.553865 -3.73478,-0.491779 -3.73478,0.802735 0,1.319888 0.64286,1.423665 10.848636,1.751285 12.678337,0.406992 17.644402,1.666993 26.216982,6.651837 15.068971,8.762411 22.78273,21.971631 23.878037,40.889301 0.542794,9.37489 -0.597117,17.65296 -3.45134,25.06372 l -2.139152,5.55413 1.820117,2.75038 c 1.001062,1.51271 3.126022,3.79983 4.722131,5.0825 3.442177,2.76621 3.662614,5.11064 0.51456,5.47245 -1.603529,0.18429 -2.717282,-0.53847 -5.980858,-3.88123 l -4.010389,-4.10769 -1.120078,1.74707 c -1.775363,2.76917 -9.465881,10.63939 -10.396452,10.63939 -0.464236,0 -1.418746,0.63502 -2.12114,1.41116 -0.702394,0.77614 -2.992879,2.37949 -5.08996,3.56301 -2.097081,1.18352 -3.81288,2.47837 -3.81288,2.87745 0,0.39908 0.960371,2.62808 2.134158,4.95333 2.400331,4.75503 2.680268,6.94896 0.970388,7.6051 -1.866521,0.71625 -3.224009,-0.63533 -5.79439,-5.76917 -1.829706,-3.65449 -2.696672,-4.72328 -3.595402,-4.4324 -0.651373,0.21082 -3.105051,1.07064 -5.452625,1.91072 -4.72573,1.69109 -15.057563,2.20455 -24.242483,1.20477 -5.68651,-0.61899 -7.73281,-1.15109 -12.61149,-3.27939 l -3.41883,-1.49145 -0.94628,2.30376 c -0.52046,1.26707 -1.17845,3.42419 -1.46221,4.79361 -0.50524,2.43836 -2.17026,4.9797 -3.26255,4.9797 -0.30268,0 -1.05337,-0.50305 -1.66821,-1.11789 z m 42.098811,-17.15714 c -0.684709,-0.17893 -1.805142,-0.17893 -2.489851,0 -0.684709,0.17893 -0.124493,0.32534 1.244925,0.32534 1.369419,0 1.929635,-0.14641 1.244926,-0.32534 z m -36.162121,-2.85124 c 0.16302,-0.11842 -0.0416,-0.21531 -0.45473,-0.21531 -0.41313,0 -1.50689,0.65925 -2.43057,1.46499 l -1.67943,1.46499 2.13416,-1.24968 c 1.17378,-0.68733 2.26754,-1.34658 2.43057,-1.46499 z m 16.77181,1.92699 c 0.24923,-0.40325 -0.0363,-0.52251 -0.6694,-0.27958 -1.23242,0.47292 -1.4579,0.98282 -0.43462,0.98282 0.36817,0 0.86498,-0.31646 1.10402,-0.70324 z m 13.82322,-1.14281 c -3.93309,-4.21003 -8.58352,-4.9956 -11.8222,-1.99704 l -1.99598,1.848 2.05225,-1.49231 c 3.39352,-2.46762 8.10803,-1.64378 11.39818,1.9918 0.74442,0.82258 1.519744,1.4956 1.722938,1.4956 0.203193,0 -0.406638,-0.83073 -1.355188,-1.84605 z m 30.287758,0.62728 c -0.782525,-0.18829 -2.362656,-1.19156 -3.511402,-2.22949 l -2.088637,-1.88713 1.732944,2.27264 c 1.164446,1.5271 2.316358,2.25849 3.511402,2.22948 1.438565,-0.0349 1.506545,-0.10859 0.355693,-0.3855 z m -17.428959,-2.03253 c 0,-0.19563 -0.640248,-0.013 -1.422773,0.40576 -0.782524,0.41879 -1.422772,0.92151 -1.422772,1.11714 0,0.19563 0.640248,0.013 1.422772,-0.40576 0.782525,-0.41879 1.422773,-0.9215 1.422773,-1.11714 z m -39.646239,-0.0609 c -0.48163,-0.19486 -1.442,-0.20672 -2.13416,-0.0264 -0.69215,0.18036 -0.29809,0.3398 0.8757,0.3543 1.17379,0.0145 1.74009,-0.13308 1.25846,-0.32795 z m 42.847476,-0.95612 c 0.938133,-0.40313 1.059297,-0.62471 0.355693,-0.6505 -0.586894,-0.0215 -1.547265,0.27121 -2.134158,0.6505 -1.300393,0.84037 -0.177199,0.84037 1.778465,0 z m 6.945796,-1.21216 c -0.874962,-0.16885 -2.475581,-0.17323 -3.556931,-0.01 -1.081349,0.16351 -0.365474,0.30167 1.590838,0.30701 1.956311,0.005 2.841055,-0.12845 1.966093,-0.2973 z m -52.133212,-24.83068 c 3.23063,-1.29264 3.90219,-2.71783 0.90363,-1.9177 -4.80839,1.28307 -9.07762,-0.49848 -11.49297,-4.79601 -3.44718,-6.13342 -0.002,-13.20843 7.07823,-14.53673 3.12049,-0.58541 6.08265,0.51918 9.03875,3.37052 2.60048,2.50833 2.97379,1.97793 0.94714,-1.34571 -5.06346,-8.30389 -16.7123,-8.93479 -22.59384,-1.22369 -2.2533,2.95422 -3.17472,8.38107 -2.0711,12.19809 2.09272,7.23802 10.82397,11.1986 18.19016,8.25123 z m 58.837706,-1.66242 c 3.5625,-1.6174 7.034769,-6.11227 7.682258,-9.94472 1.449769,-8.58114 -6.180544,-16.51439 -14.934747,-15.52766 -5.956087,0.67133 -12.120219,6.52146 -11.604059,11.01294 l 0.226555,1.97138 1.500876,-2.53931 c 4.408794,-7.45916 15.860167,-5.99426 18.097655,2.31513 1.463669,5.43566 -1.84424,11.15257 -7.124077,12.31221 -1.178674,0.25888 -2.325663,0.76618 -2.548875,1.12735 -0.734762,1.18887 5.660898,0.65447 8.704414,-0.72732 z M -150.8418,116.38813 c 0.28915,-2.54082 -1.54204,-4.25213 -3.45468,-3.22851 -3.04341,1.62878 -2.02904,5.93352 1.30734,5.54807 1.52195,-0.17583 1.95685,-0.64561 2.14734,-2.31956 z m 4.40843,-5.73821 c 4.09862,-2.11948 5.58554,-7.96915 2.53391,-9.96865 -3.42813,-2.246199 -8.95968,1.78607 -8.95968,6.53124 0,2.41184 1.53191,4.51653 3.28738,4.51653 0.57838,0 1.99065,-0.4856 3.13839,-1.07912 z"
           id="path896" />
        <path
           style="fill:#c3121b;stroke-width:0.711386"
           d="m -137.55443,201.62766 c -0.63735,-0.63735 -1.01462,-1.53455 -0.8384,-1.99379 0.17623,-0.45924 0.88339,-2.84142 1.57148,-5.29373 1.18992,-4.24084 1.34141,-4.43647 3.09958,-4.00267 1.01669,0.25086 2.06784,0.67354 2.3359,0.9393 0.64674,0.64121 -1.6436,8.84287 -2.88649,10.33644 -1.22307,1.46975 -1.82412,1.4724 -3.28207,0.0144 z m 58.513496,-1.46428 c -2.043009,-3.33228 -3.390979,-6.37563 -3.390979,-7.6559 0,-0.5302 0.914345,-1.28276 2.031875,-1.67233 1.994684,-0.69535 2.074217,-0.6208 4.344763,4.07265 2.542515,5.25564 2.607343,7.40609 0.233505,7.74543 -1.157212,0.16542 -1.982654,-0.47302 -3.219164,-2.48985 z M -143.61112,183.6066 c -7.21098,-3.85863 -15.36804,-16.93486 -19.20785,-30.79126 -1.35118,-4.87591 -1.92924,-5.7477 -9.42544,-14.21503 -4.24692,-4.79711 -4.80333,-6.18662 -3.05753,-7.63551 1.59576,-1.32436 3.45056,-0.32905 6.59862,3.5409 3.33398,4.0985 3.74782,3.75757 3.7556,-3.09388 0.007,-5.94703 2.29817,-15.08431 5.25542,-20.95663 5.08016,-10.08784 13.65227,-17.989019 24.22611,-22.32994 5.46201,-2.242339 6.13047,-2.347918 14.44158,-2.280947 10.06328,0.08109 9.90962,0.22645 6.50766,-6.156271 -1.21374,-2.277227 -1.99517,-4.482872 -1.73648,-4.901433 0.8533,-1.38067 4.41344,-0.852776 5.66229,0.839598 0.95746,1.29751 1.26181,1.398547 1.6072,0.53354 0.99381,-2.489026 6.64343,-7.002908 10.274326,-8.2089 4.414854,-1.466379 16.434384,-1.870838 17.713783,-0.596071 1.134889,1.130777 -0.266919,6.088699 -3.026997,10.705878 -3.469089,5.80324 -9.3211,7.44185 -20.284202,5.679738 -3.44592,-0.553865 -3.73478,-0.491779 -3.73478,0.802735 0,1.319888 0.64286,1.423665 10.848636,1.751285 12.678337,0.406992 17.644402,1.666993 26.216982,6.651837 15.068971,8.762411 22.78273,21.971631 23.878037,40.889301 0.542794,9.37489 -0.597117,17.65296 -3.45134,25.06372 l -2.139152,5.55413 1.820117,2.75038 c 1.001062,1.51271 3.126022,3.79983 4.722131,5.0825 3.442177,2.76621 3.662614,5.11064 0.51456,5.47245 -1.603529,0.18429 -2.717282,-0.53847 -5.980858,-3.88123 l -4.010389,-4.10769 -1.114073,1.74707 c -0.612746,0.96089 -3.043339,3.75754 -5.40132,6.2148 -5.563118,5.79731 -8.277198,6.46468 -12.218291,3.00435 -2.479294,-2.17684 -2.873943,-2.28987 -6.763503,-1.93718 -2.932533,0.26591 -5.457541,1.11663 -8.70563,2.93307 -5.607892,3.13611 -8.706783,3.33402 -11.155897,0.71246 -2.31003,-2.47269 -5.09104,-3.84504 -7.79186,-3.84504 -1.66031,0 -2.95621,0.73829 -5.10431,2.90796 -2.55014,2.57576 -3.14982,2.85717 -5.24913,2.46334 -1.30354,-0.24454 -3.85712,-1.10242 -5.67463,-1.90639 -3.9262,-1.73674 -6.78804,-1.41184 -10.28422,1.16756 -2.83611,2.09242 -5.12706,2.19314 -8.52517,0.3748 z m 13.50194,-29.62733 c 3.23063,-1.29264 3.90219,-2.71783 0.90363,-1.9177 -4.80839,1.28307 -9.07762,-0.49848 -11.49297,-4.79601 -3.44718,-6.13342 -0.002,-13.20843 7.07823,-14.53673 3.12049,-0.58541 6.08265,0.51918 9.03875,3.37052 2.60048,2.50833 2.97379,1.97793 0.94714,-1.34571 -5.06346,-8.30389 -16.7123,-8.93479 -22.59384,-1.22369 -2.2533,2.95422 -3.17472,8.38107 -2.0711,12.19809 2.09272,7.23802 10.82397,11.1986 18.19016,8.25123 z m 58.837706,-1.66242 c 3.5625,-1.6174 7.034769,-6.11227 7.682258,-9.94472 1.449769,-8.58114 -6.180544,-16.51439 -14.934747,-15.52766 -5.956087,0.67133 -12.120219,6.52146 -11.604059,11.01294 l 0.226555,1.97138 1.500876,-2.53931 c 4.408794,-7.45916 15.860167,-5.99426 18.097655,2.31513 1.463669,5.43566 -1.84424,11.15257 -7.124077,12.31221 -1.178674,0.25888 -2.325663,0.76618 -2.548875,1.12735 -0.734762,1.18887 5.660898,0.65447 8.704414,-0.72732 z M -150.8418,116.38813 c 0.28915,-2.54082 -1.54204,-4.25213 -3.45468,-3.22851 -3.04341,1.62878 -2.02904,5.93352 1.30734,5.54807 1.52195,-0.17583 1.95685,-0.64561 2.14734,-2.31956 z m 4.40843,-5.73821 c 4.09862,-2.11948 5.58554,-7.96915 2.53391,-9.96865 -3.42813,-2.246199 -8.95968,1.78607 -8.95968,6.53124 0,2.41184 1.53191,4.51653 3.28738,4.51653 0.57838,0 1.99065,-0.4856 3.13839,-1.07912 z m 41.47224,-31.922023 c 2.02262,-1.326348 5.278105,-3.232185 7.234416,-4.235193 5.318984,-2.727063 3.316724,-2.262757 -2.640556,0.612318 -4.78498,2.309312 -10.24159,6.022634 -8.86218,6.030884 0.32496,0.0019 2.2457,-1.081661 4.26832,-2.408009 z m 13.281198,-6.836477 c 0.586894,-0.37928 0.746955,-0.689599 0.355693,-0.689599 -0.391262,0 -1.191572,0.310319 -1.778465,0.689599 -0.586894,0.37928 -0.746955,0.689599 -0.355693,0.689599 0.391262,0 1.191572,-0.310319 1.778465,-0.689599 z m 3.364266,-1.141182 c -0.236394,-0.236387 -0.849964,-0.26166 -1.363493,-0.05616 -0.567494,0.227093 -0.398931,0.395661 0.429799,0.429796 0.749914,0.03089 1.17008,-0.137246 0.933694,-0.373634 z"
           id="path894" />
        <path
           style="fill:#ab1317;stroke-width:0.711386"
           d="m -137.55443,201.62766 c -0.63735,-0.63735 -1.01462,-1.53455 -0.8384,-1.99379 0.17623,-0.45924 0.88339,-2.84142 1.57148,-5.29373 1.18992,-4.24084 1.34141,-4.43647 3.09958,-4.00267 1.01669,0.25086 2.06784,0.67354 2.3359,0.9393 0.64674,0.64121 -1.6436,8.84287 -2.88649,10.33644 -1.22307,1.46975 -1.82412,1.4724 -3.28207,0.0144 z m 58.513496,-1.46428 c -2.043009,-3.33228 -3.390979,-6.37563 -3.390979,-7.6559 0,-0.5302 0.914345,-1.28276 2.031875,-1.67233 1.994684,-0.69535 2.074217,-0.6208 4.344763,4.07265 2.542515,5.25564 2.607343,7.40609 0.233505,7.74543 -1.157212,0.16542 -1.982654,-0.47302 -3.219164,-2.48985 z m -57.100626,-16.82336 c 1.17378,-1.02899 3.34615,-2.25061 4.82748,-2.71469 2.34256,-0.7339 3.17639,-0.64441 6.40248,0.68717 6.13457,2.53205 7.91371,2.66507 9.47303,0.70828 2.10136,-2.63699 4.66296,-4.13283 7.07739,-4.13283 2.1336,0 7.7392,3.13256 9.584603,5.35614 1.513246,1.82334 -0.404373,1.12792 -2.205223,-0.79972 -2.31003,-2.47269 -5.09104,-3.84504 -7.79186,-3.84504 -1.66031,0 -2.95621,0.73829 -5.10431,2.90796 -2.55851,2.58421 -3.14523,2.85803 -5.26983,2.45946 -1.31492,-0.24668 -3.7557,-1.06805 -5.42395,-1.82526 -1.66825,-0.75722 -3.60368,-1.38378 -4.30095,-1.39238 -1.43995,-0.0177 -4.99006,1.50488 -7.62456,3.27014 -1.25805,0.84297 -1.15397,0.64422 0.3557,-0.67923 z m -7.46956,0.23902 c -0.64116,-0.41436 -0.72891,-0.69395 -0.21983,-0.7005 0.46599,-0.006 1.0451,0.30923 1.28691,0.7005 0.54585,0.8832 0.29958,0.8832 -1.06708,0 z m 53.338103,-2.29539 c 4.023095,-2.24818 6.292801,-3.04305 9.313026,-3.26152 3.653466,-0.26427 4.207948,-0.10056 6.512249,1.92263 2.685945,2.3583 4.243873,2.66296 7.442165,1.45536 1.455297,-0.54948 1.79142,-0.54242 1.229838,0.0258 -0.425032,0.43008 -1.937233,0.97093 -3.360446,1.20188 -2.218714,0.36005 -2.963072,0.0903 -5.220585,-1.89181 -2.479294,-2.17684 -2.873943,-2.28988 -6.763503,-1.93719 -2.932533,0.26591 -5.457541,1.11663 -8.70563,2.93307 -2.516287,1.40718 -4.843167,2.55084 -5.170852,2.54146 -0.327693,-0.009 1.797992,-1.35476 4.723738,-2.98972 z m 38.560413,-7.47691 -4.160648,-4.17359 1.077451,-2.27508 c 1.342293,-2.83428 2.295572,-2.86953 3.905325,-0.14444 0.692221,1.17184 2.694047,3.33052 4.448496,4.79705 3.691802,3.08597 4.025065,5.37825 0.835317,5.74561 -1.56877,0.18067 -2.750624,-0.5838 -6.105941,-3.94955 z m -54.319236,-2.62285 c -4.62594,-1.62213 -8.18877,-5.09418 -10.94034,-10.6616 -1.7827,-3.60706 -2.4884,-5.91149 -2.32731,-7.59975 0.271,-2.84015 0.96318,-3.11292 13.96417,-5.50282 9.169252,-1.68553 10.761085,-1.38163 12.554027,2.39671 1.398116,2.94631 1.397177,6.71806 -0.0028,12.0937 -1.971934,7.57076 -7.355897,11.33972 -13.247557,9.27376 z m -28.68695,-18.9857 c -2.83437,-0.86086 -4.1418,-1.93957 -5.95407,-4.91242 -3.59728,-5.90099 -0.0212,-13.22989 7.10802,-14.56735 3.06794,-0.57554 6.39298,0.76073 9.77786,3.92957 2.06625,1.93437 2.40241,2.72172 2.44784,5.73343 0.0706,4.67976 -3.06859,9.44412 -6.33073,9.60818 -1.1883,0.0598 -2.78024,0.27699 -3.53765,0.48272 -0.75741,0.20573 -2.33748,0.0824 -3.51127,-0.27413 z m 49.723227,-0.19168 c -3.466072,-1.56205 -5.574073,-5.09253 -5.64095,-9.4475 -0.03137,-2.04121 0.1699,-3.57106 0.447227,-3.39965 0.277326,0.17139 1.130926,-0.75056 1.896896,-2.04878 3.613109,-6.12377 12.99536,-6.1665 16.985112,-0.0774 1.745542,2.66403 1.649106,8.29165 -0.185103,10.80148 -2.826472,3.8676 -9.561264,5.94832 -13.503182,4.17182 z m -79.123587,-3.81893 c -0.76862,-1.07597 -3.82234,-4.67737 -6.78604,-8.0031 -5.4928,-6.16377 -6.2261,-7.70145 -4.39675,-9.21968 1.59922,-1.32723 3.45206,-0.32721 6.62843,3.57753 1.60361,1.97135 3.10791,3.55565 3.34288,3.52065 0.23496,-0.035 2.01501,1.46845 3.95566,3.34096 2.41211,2.32741 3.52967,3.97849 3.53229,5.21859 0.008,3.83626 -3.94914,4.82301 -6.27647,1.56505 z m 46.68976,-53.262946 c -3.56243,-2.014078 -4.41348,-3.230797 -3.74126,-5.34878 0.5372,-1.692568 2.3165,-1.689657 4.19066,0.0068 0.80775,0.731176 2.38761,1.547285 3.51083,1.813577 1.99345,0.472606 2.03113,0.428128 1.57809,-1.86295 -0.25526,-1.290914 -0.45456,-3.103706 -0.44288,-4.028425 0.0117,-0.92472 -0.97124,-3.543406 -2.18429,-5.819301 -1.21304,-2.275897 -1.99388,-4.480452 -1.73519,-4.899013 0.8533,-1.38067 4.41344,-0.852776 5.66229,0.839598 0.95746,1.29751 1.26181,1.398547 1.6072,0.53354 0.99381,-2.489026 6.64343,-7.002908 10.274326,-8.2089 4.414854,-1.466379 16.434384,-1.870838 17.713783,-0.596071 1.134889,1.130777 -0.266919,6.088699 -3.026997,10.705878 -3.469089,5.80324 -9.3211,7.44185 -20.284202,5.679738 -3.47851,-0.559102 -3.73478,-0.500964 -3.73478,0.847249 0,0.796149 0.32012,1.64539 0.71138,1.887204 0.39127,0.241814 0.71139,1.381139 0.71139,2.531835 0,2.808713 1.84097,2.768277 7.497867,-0.164684 4.545452,-2.356707 6.729855,-2.359915 6.729855,-0.0099 0,1.755498 -1.782413,3.299243 -5.925185,5.131787 -4.556757,2.015672 -5.760287,2.295686 -11.148077,2.593727 -3.9702,0.219623 -5.09639,-0.01127 -7.96481,-1.632984 z m 12.46826,-16.196737 c 2.02262,-1.326348 5.278105,-3.232185 7.234416,-4.235193 5.318984,-2.727063 3.316724,-2.262757 -2.640556,0.612318 -4.78498,2.309312 -10.24159,6.022634 -8.86218,6.030884 0.32496,0.0019 2.2457,-1.081661 4.26832,-2.408009 z m 13.281198,-6.836477 c 0.586894,-0.37928 0.746955,-0.689599 0.355693,-0.689599 -0.391262,0 -1.191572,0.310319 -1.778465,0.689599 -0.586894,0.37928 -0.746955,0.689599 -0.355693,0.689599 0.391262,0 1.191572,-0.310319 1.778465,-0.689599 z m 3.364266,-1.141182 c -0.236394,-0.236387 -0.849964,-0.26166 -1.363493,-0.05616 -0.567494,0.227093 -0.398931,0.395661 0.429799,0.429796 0.749914,0.03089 1.17008,-0.137246 0.933694,-0.373634 z"
           id="path892" />
        <path
           style="fill:#118136;stroke-width:0.711386"
           d="m -137.55443,201.62766 c -0.63735,-0.63735 -1.01462,-1.53455 -0.8384,-1.99379 0.17623,-0.45924 0.88339,-2.84142 1.57148,-5.29373 1.18992,-4.24084 1.34141,-4.43647 3.09958,-4.00267 1.01669,0.25086 2.06784,0.67354 2.3359,0.9393 0.64674,0.64121 -1.6436,8.84287 -2.88649,10.33644 -1.22307,1.46975 -1.82412,1.4724 -3.28207,0.0144 z m 58.513496,-1.46428 c -2.043009,-3.33228 -3.390979,-6.37563 -3.390979,-7.6559 0,-0.5302 0.914345,-1.28276 2.031875,-1.67233 1.994684,-0.69535 2.074217,-0.6208 4.344763,4.07265 2.542515,5.25564 2.607343,7.40609 0.233505,7.74543 -1.157212,0.16542 -1.982654,-0.47302 -3.219164,-2.48985 z m 27.558086,-26.15289 -3.880547,-3.97469 1.180916,-2.4764 c 0.649502,-1.36202 1.372726,-2.4764 1.607156,-2.4764 0.234437,0 0.992618,0.95878 1.684847,2.13063 0.692221,1.17184 2.694047,3.33052 4.448496,4.79705 3.704379,3.09648 4.026004,5.37844 0.810141,5.74804 -1.597467,0.18359 -2.705032,-0.52592 -5.851009,-3.74823 z m -55.610472,-3.52352 c -5.49709,-2.482 -11.61928,-11.50967 -11.61928,-17.13357 0,-2.8205 -0.26914,-2.7146 13.59702,-5.35018 9.215144,-1.75155 10.493135,-1.52832 11.993996,2.09508 1.227781,2.96413 0.652696,11.80016 -0.98776,15.17655 -2.443853,5.02998 -8.236916,7.35547 -12.983976,5.21212 z m -27.62547,-18.29901 c -2.82864,-0.84557 -4.13862,-1.92412 -5.95407,-4.90219 -3.94699,-6.47465 0.69767,-14.40714 8.50253,-14.52126 7.49811,-0.10963 12.80367,8.13527 9.35246,14.53384 -2.03704,3.77669 -7.7592,6.1277 -11.90092,4.88961 z m 51.931184,0.23907 c -4.009237,-0.88796 -7.483888,-5.50401 -7.457851,-9.90769 0.01729,-2.9291 2.844242,-7.3384 5.668288,-8.84112 4.694373,-2.49795 10.376136,-1.06144 13.269891,3.35499 1.745542,2.66403 1.649106,8.29165 -0.185103,10.80148 -2.284745,3.12633 -7.796464,5.36725 -11.295225,4.59234 z m -86.552634,-10.50929 c -3.65142,-4.13312 -6.74541,-7.98997 -6.87553,-8.5708 -0.29541,-1.31859 1.14299,-3.12186 2.49019,-3.12186 0.55677,0 1.71803,0.75099 2.58059,1.66886 0.86255,0.91788 4.2093,4.39918 7.43722,7.73623 5.88513,6.08409 6.60155,7.36239 5.01527,8.94867 -2.07872,2.07871 -3.97403,0.89303 -10.64774,-6.6611 z m 53.49434,-46.921395 c -3.26748,-1.475826 -5.00086,-3.111557 -5.00086,-4.719143 0,-1.541837 1.87686,-1.736229 3.50091,-0.362598 1.57623,1.333178 5.70319,2.888059 6.24018,2.351062 0.78813,-0.788121 -1.35461,-8.503055 -3.52095,-12.677211 -1.15343,-2.22246 -1.8855,-4.383295 -1.62681,-4.801856 0.8533,-1.38067 4.41344,-0.852776 5.66229,0.839598 0.95746,1.29751 1.26181,1.398547 1.6072,0.53354 0.99381,-2.489026 6.64343,-7.002908 10.274326,-8.2089 4.414854,-1.466379 16.434384,-1.870838 17.713783,-0.596071 1.134889,1.130777 -0.266919,6.088699 -3.026997,10.705878 -3.478614,5.819179 -9.306872,7.440067 -20.376902,5.666989 l -3.82748,-0.613043 0.50562,3.371691 c 0.76903,5.128229 1.02679,5.516947 3.35027,5.052251 1.12364,-0.224726 3.74948,-1.215899 5.835205,-2.202606 4.187617,-1.98106 5.128568,-2.151397 5.808361,-1.051463 0.773092,1.25088 -1.225441,2.955165 -6.066039,5.172927 -5.689457,2.606673 -13.189537,3.283557 -17.052107,1.538955 z m 10.88477,-16.268448 c 2.02262,-1.326348 5.278105,-3.232185 7.234416,-4.235193 5.318984,-2.727063 3.316724,-2.262757 -2.640556,0.612318 -4.78498,2.309312 -10.24159,6.022634 -8.86218,6.030884 0.32496,0.0019 2.2457,-1.081661 4.26832,-2.408009 z m 13.281198,-6.836477 c 0.586894,-0.37928 0.746955,-0.689599 0.355693,-0.689599 -0.391262,0 -1.191572,0.310319 -1.778465,0.689599 -0.586894,0.37928 -0.746955,0.689599 -0.355693,0.689599 0.391262,0 1.191572,-0.310319 1.778465,-0.689599 z m 3.364266,-1.141182 c -0.236394,-0.236387 -0.849964,-0.26166 -1.363493,-0.05616 -0.567494,0.227093 -0.398931,0.395661 0.429799,0.429796 0.749914,0.03089 1.17008,-0.137246 0.933694,-0.373634 z"
           id="path890" />
        <path
           style="fill:#630607;stroke-width:0.711386"
           d="m -136.84767,201.81121 c -1.3294,-0.97208 -1.32937,-1.08315 0.002,-6.42901 1.08106,-4.34131 1.57626,-5.34775 2.45221,-4.98386 0.60368,0.25079 1.62685,0.60896 2.27373,0.79594 1.08275,0.31297 1.06936,0.71329 -0.16858,5.04216 -1.64702,5.75931 -2.64238,6.97639 -4.55921,5.57477 z m 58.855532,0.086 c -0.98978,-1.23246 -4.439775,-8.17346 -4.439775,-8.93234 0,-0.89897 3.689064,-2.44506 4.229311,-1.77251 0.250771,0.31218 1.374178,2.55334 2.496468,4.98035 1.696741,3.66931 1.886645,4.59816 1.127198,5.51324 -1.104242,1.33053 -2.447545,1.41367 -3.413202,0.21126 z m 26.697438,-28.00835 -3.999071,-3.99908 1.1495,-2.41053 c 0.632223,-1.32579 1.348198,-2.16722 1.591065,-1.86985 0.24286,0.29736 2.430216,2.65626 4.860787,5.242 3.054066,3.24903 4.280823,5.06203 3.971178,5.86894 -0.857896,2.23566 -3.490608,1.25137 -7.573459,-2.83148 z m -55.79862,-3.40191 c -5.49709,-2.482 -11.61928,-11.50967 -11.61928,-17.13357 0,-2.8205 -0.26914,-2.7146 13.59702,-5.35018 9.215144,-1.75155 10.493135,-1.52832 11.993996,2.09508 1.227781,2.96413 0.652696,11.80016 -0.98776,15.17655 -2.443853,5.02998 -8.236916,7.35547 -12.983976,5.21212 z m 24.305714,-18.01881 c -4.009272,-1.00384 -7.469554,-5.53681 -7.469554,-9.78511 0,-2.16407 2.852353,-6.90408 5.103384,-8.48077 4.175054,-2.92432 11.448564,-1.31063 13.697839,3.03899 1.42921,2.76379 1.431138,7.38723 0.0043,10.14658 -1.161779,2.24662 -8.271166,6.219 -8.727477,4.87648 -0.130468,-0.38372 -0.54951,-0.69767 -0.931261,-0.69767 -0.381752,0 -0.496242,0.32013 -0.254428,0.71139 0.241815,0.39126 0.34074,0.67425 0.219833,0.62886 -0.120907,-0.0454 -0.86008,-0.24283 -1.642605,-0.43875 z m -53.353954,-0.98782 c -2.8822,-1.65985 -4.65862,-3.8028 -5.38328,-6.49397 -0.98958,-3.67501 0.12189,-6.94041 3.31731,-9.74603 4.16343,-3.65555 10.81652,-2.78395 14.23736,1.86517 0.82533,1.12168 1.73608,2.78133 2.02388,3.68812 1.21717,3.83498 -1.71518,9.65493 -5.30295,10.52494 -3.65038,0.88521 -7.5141,0.95549 -8.89232,0.16177 z m -33.07946,-9.6335 c -6.75707,-7.55386 -7.83579,-9.71987 -5.5567,-11.15748 1.00242,-0.63231 2.44545,0.47446 8.71035,6.68063 7.85454,7.78092 8.90318,9.32536 7.48881,11.02957 -1.88484,2.2711 -3.80938,1.08612 -10.64246,-6.55272 z m 53.37512,-46.850495 c -3.26748,-1.475826 -5.00086,-3.111557 -5.00086,-4.719143 0,-1.541837 1.87686,-1.736229 3.50091,-0.362598 1.57623,1.333178 5.70319,2.888059 6.24018,2.351062 0.78813,-0.788121 -1.35461,-8.503055 -3.52095,-12.677211 -1.15343,-2.22246 -1.8855,-4.383295 -1.62681,-4.801856 0.78156,-1.26459 4.53367,-0.893616 5.29193,0.523218 0.37802,0.706331 0.51143,2.595517 0.29647,4.198191 -0.32487,2.422067 -0.15043,3.042622 1.0334,3.676188 0.85573,0.457976 1.61441,1.83478 1.90065,3.449208 0.90749,5.118287 1.073,5.362462 3.3289,4.91128 1.14055,-0.22811 3.78024,-1.222051 5.865965,-2.208758 4.187617,-1.98106 5.128568,-2.151397 5.808361,-1.051463 0.773092,1.25088 -1.225441,2.955165 -6.066039,5.172927 -5.689457,2.606673 -13.189537,3.283557 -17.052107,1.538955 z"
           id="path888" />
        <path
           style="fill:#080101;stroke-width:0.711386"
           d="m -136.84767,201.81121 c -1.3294,-0.97208 -1.32937,-1.08315 0.002,-6.42901 1.08106,-4.34131 1.57626,-5.34775 2.45221,-4.98386 0.60368,0.25079 1.62685,0.60896 2.27373,0.79594 1.08275,0.31297 1.06936,0.71329 -0.16858,5.04216 -1.64702,5.75931 -2.64238,6.97639 -4.55921,5.57477 z m 58.855532,0.086 c -0.98978,-1.23246 -4.439775,-8.17346 -4.439775,-8.93234 0,-0.89897 3.689064,-2.44506 4.229311,-1.77251 0.250771,0.31218 1.374178,2.55334 2.496468,4.98035 1.696741,3.66931 1.886645,4.59816 1.127198,5.51324 -1.104242,1.33053 -2.447545,1.41367 -3.413202,0.21126 z m 28.639678,-26.04642 c -5.355691,-5.00756 -5.57011,-5.40489 -4.271667,-7.91579 0.646437,-1.25007 1.245964,-2.16307 1.332291,-2.0289 0.08632,0.13418 2.150833,2.35956 4.5878,4.9453 3.06404,3.2511 4.292632,5.06152 3.982795,5.86894 -0.67635,1.76256 -3.239411,1.36678 -5.631219,-0.86955 z m -57.69994,-6.05802 c -7.18424,-3.24789 -13.93218,-16.57943 -9.57281,-18.91249 0.7568,-0.40503 2.21583,-0.73641 3.24228,-0.73641 1.02646,0 5.05341,-0.66044 8.94878,-1.46764 3.89538,-0.80719 7.687499,-1.27561 8.426942,-1.04093 1.646062,0.52244 3.61589,4.48209 3.61589,7.26848 0,1.13027 -0.492983,3.963 -1.095513,6.29496 -1.947818,7.53861 -7.758079,11.21951 -13.565569,8.59403 z m 7.355033,-4.88764 c 1.712762,-1.85412 3.028072,-6.15129 3.033763,-9.91146 0.005,-3.19229 -1.568059,-3.93662 -5.939486,-2.81066 -1.62188,0.41775 -4.80306,1.11571 -7.0693,1.55101 -3.75521,0.72132 -4.07905,0.92833 -3.65366,2.33544 1.43161,4.73548 7.05908,10.43629 10.30202,10.43629 1.01644,0 2.51343,-0.72028 3.326663,-1.60062 z m -36.444193,-13.45728 c -2.83039,-1.56543 -4.65445,-3.75483 -5.38328,-6.4615 -0.98958,-3.67501 0.12189,-6.94041 3.31731,-9.74603 1.97426,-1.73342 3.11701,-2.16972 5.68298,-2.16972 5.70216,0 9.07089,2.83989 9.95933,8.39585 0.62624,3.9163 -1.25056,7.63719 -4.75357,9.42429 -3.00805,1.53459 -6.6407,1.76398 -8.82277,0.55711 z m 51.197387,-0.71762 c -7.49744,-4.52539 -5.139444,-16.4266 3.578671,-18.06213 3.290246,-0.61725 8.458999,1.76807 9.909565,4.57315 1.417778,2.74168 1.434268,7.38118 0.03585,10.08542 -2.207424,4.26871 -9.182508,6.02409 -13.524083,3.40356 z m -81.310807,-5.74391 c -10.95997,-11.75237 -11.40088,-12.49943 -8.45713,-14.32932 1.08914,-0.67703 2.25854,0.26123 8.32787,6.68192 7.50596,7.94047 8.45535,9.42066 7.0943,11.06062 -1.46989,1.77111 -2.68606,1.17513 -6.96504,-3.41322 z m 55.72835,-61.704594 c -0.24922,-0.403256 0.0364,-0.522518 0.6694,-0.279583 1.23242,0.472923 1.45791,0.982821 0.43463,0.982821 -0.36817,0 -0.86499,-0.316458 -1.10403,-0.703238 z m -3.20627,-2.142307 c -0.41879,-0.782524 -0.60139,-1.422772 -0.40575,-1.422772 0.19563,0 0.69834,0.640248 1.11714,1.422772 0.41879,0.782525 0.60138,1.422773 0.40575,1.422773 -0.19563,0 -0.69835,-0.640248 -1.11714,-1.422773 z m 1.74016,-0.06198 c -0.26289,-0.425354 -0.12171,-1.129626 0.3137,-1.565049 0.58132,-0.581316 0.79168,-0.375816 0.79168,0.773369 0,1.71765 -0.36953,1.982312 -1.10538,0.79168 z"
           id="path886" />
      </g>
      <text
         xml:space="preserve"
         transform="matrix(0.26458333,0,0,0.26458333,2.4287986,-58.051121)"
         id="text7166"
         style="font-style:normal;font-weight:normal;font-size:60px;line-height:1.25;font-family:sans-serif;white-space:pre;shape-inside:url(#rect7168);fill:#000000;fill-opacity:1;stroke:none"><tspan
           x="-584.48828"
           y="521.84552"
           id="tspan28312"><tspan
             style="font-family:'Arial Black';-inkscape-font-specification:'Arial Black, '"
             id="tspan28308">     </tspan><tspan
             style="fill:#ffffff"
             id="tspan28310"> MY </tspan></tspan><tspan
           x="-584.48828"
           y="597.55432"
           id="tspan28318"><tspan
             style="fill:#ffffff"
             id="tspan28314">SERVINGS</tspan><tspan
             style="font-family:'Arial Black';-inkscape-font-specification:'Arial Black, '"
             id="tspan28316"> 
</tspan></tspan></text>
    </g>
  </g>
</svg>
